<svg version="1.1" preserveAspectRatio="none" xmlns="http://www.w3.org/2000/svg" width="500" height="500" viewBox="0 0 500 500"><rect width="100%" height="100%" fill="#FFF1F0" fill-opacity="1"/><svg viewBox="153.7691 168.6001 222.6417 120" width="333" height="179.48120230846246" x="83.5px" y="160.2594px" xmlns="http://www.w3.org/2000/svg" xmlns:xlink="http://www.w3.org/1999/xlink" preserveAspectRatio="none"><defs></defs><style>.companyName {fill:#0D265D;fill-opacity:1;}.icon3-str {stroke:#FBDEDD;stroke-opacity:1;}.shapeStroke-str {stroke:#2E4E92;stroke-opacity:1;}</style><g opacity="1" transform="rotate(0 174.7691 168.6001)">
<svg width="201.6417" height="120" x="174.7691" y="168.6001" version="1.1" preserveAspectRatio="none" viewBox="0.36 -27.72 117.96000000000001 70.2">
  <g transform="matrix(1 0 0 1 0 0)" class="companyName"><path id="id-D6z1nYkh11" d="M22.16-3.40Q22.48-2.36 22.78-1.88Q23.08-1.40 23.58-1.24Q24.08-1.08 25.08-1.08L25.08-1.08L25.08 0L16.92 0L16.92-1.08L18.24-1.08Q19.44-1.08 19.44-2.04L19.44-2.04Q19.44-2.48 19.28-2.92L19.28-2.92L16.64-10.16L7.36-10.16L4.64-2.84Q4.48-2.20 4.48-2L4.48-2Q4.48-1.08 5.60-1.08L5.60-1.08L6.76-1.08L6.76 0L0.36 0L0.36-1.08Q1.40-1.08 1.96-1.30Q2.52-1.52 2.82-2.04Q3.12-2.56 3.52-3.72L3.52-3.72L12.08-26.40L13.68-26.40L22.16-3.40ZM7.88-11.52L16.12-11.52L12.08-22.56L11.96-22.56L7.88-11.52Z M44.84-1.08L45.24-1.08L45.24 0L37.92 0L37.92-1.08L38.72-1.08Q39.72-1.08 39.72-1.52L39.72-1.52Q39.72-1.80 38.92-2.96L38.92-2.96L33.96-9.56L32.32-7.88L32.32-3.32Q32.32-2.24 32.48-1.80Q32.64-1.36 33.20-1.22Q33.76-1.08 35.16-1.08L35.16-1.08L35.16 0L26.84 0L26.84-1.08Q28.28-1.08 28.82-1.22Q29.36-1.36 29.52-1.78Q29.68-2.20 29.68-3.32L29.68-3.32L29.68-24.24Q29.68-25.24 29.44-25.58Q29.20-25.92 28.48-25.92L28.48-25.92L27-25.92L27-27L31.24-27.72L32.32-27.72L32.32-9.44L38.76-15.84Q39.56-16.60 39.56-17.12L39.56-17.12Q39.56-17.60 38.80-17.60L38.80-17.60L38.16-17.60L38.16-18.68L44.48-18.68L44.48-17.60L43.88-17.60Q42.52-17.60 41.58-16.98Q40.64-16.36 39.86-15.58Q39.08-14.80 38.84-14.56L38.84-14.56L35.76-11.40L41.16-4.28Q42.64-2.32 43.36-1.70Q44.08-1.08 44.84-1.08L44.84-1.08Z M54.32 0.44Q53.16 0.44 52.40 0.24Q51.64 0.04 50.84-0.28L50.84-0.28Q49.96-0.64 49.56-0.64L49.56-0.64Q49.16-0.64 48.98-0.48Q48.80-0.32 48.64 0.12L48.64 0.12L47.88 0.12L47.44-6.48L48.12-6.48Q48.88-3.44 50.38-2.04Q51.88-0.64 54.12-0.64L54.12-0.64Q56.04-0.64 57.28-1.58Q58.52-2.52 58.52-4.16L58.52-4.16Q58.52-6.04 57.16-6.96Q55.80-7.88 53.56-8.60L53.56-8.60L52.44-8.96Q50.20-9.68 49-10.74Q47.80-11.80 47.80-13.76L47.80-13.76Q47.80-16.20 49.60-17.68Q51.40-19.16 54.28-19.16L54.28-19.16Q55.20-19.16 55.78-19.04Q56.36-18.92 57.04-18.68L57.04-18.68Q57.76-18.44 58-18.44L58-18.44Q58.40-18.44 58.54-18.62Q58.68-18.80 58.74-18.96Q58.80-19.12 58.80-19.16L58.80-19.16L59.44-19.16L59.72-13.28L59.04-13.28Q58.56-15.60 57.54-16.84Q56.52-18.08 54.36-18.08L54.36-18.08Q52.48-18.08 51.28-17.16Q50.08-16.24 50.08-14.80L50.08-14.80Q50.08-13.36 51.26-12.42Q52.44-11.48 54-11.04L54-11.04L54.96-10.76Q58.08-9.84 59.52-8.60Q60.96-7.36 60.96-5.24L60.96-5.24Q60.96-2.68 59.10-1.12Q57.24 0.44 54.32 0.44L54.32 0.44Z M81.20-3.32Q81.20-2.20 81.36-1.78Q81.52-1.36 82.06-1.22Q82.60-1.08 84.04-1.08L84.04-1.08L84.04 0L75.72 0L75.72-1.08Q77.12-1.08 77.68-1.22Q78.24-1.36 78.40-1.80Q78.56-2.24 78.56-3.32L78.56-3.32L78.56-13.08Q78.56-15.04 77.66-16.34Q76.76-17.64 74.68-17.64L74.68-17.64Q73-17.64 71.86-16.76Q70.72-15.88 69.60-14.20L69.60-14.20L69.60-3.32Q69.60-2.24 69.76-1.80Q69.92-1.36 70.48-1.22Q71.04-1.08 72.44-1.08L72.44-1.08L72.44 0L64.12 0L64.12-1.08Q65.56-1.08 66.10-1.22Q66.64-1.36 66.80-1.78Q66.96-2.20 66.96-3.32L66.96-3.32L66.96-24.24Q66.96-25.24 66.72-25.58Q66.48-25.92 65.76-25.92L65.76-25.92L64.28-25.92L64.28-27L68.52-27.72L69.60-27.72L69.60-16L69.68-16Q70.80-17.64 72.20-18.40Q73.60-19.16 75.76-19.16L75.76-19.16Q78.60-19.16 79.90-17.78Q81.20-16.40 81.20-13.44L81.20-13.44L81.20-3.32Z M102.92-1.44L103.16-0.52Q102.44-0.12 101.78 0.14Q101.12 0.40 99.96 0.40L99.96 0.40Q99 0.40 98.44-0.06Q97.88-0.52 97.76-2.08L97.76-2.08Q96.16-0.76 94.78-0.14Q93.40 0.48 91.72 0.48L91.72 0.48Q89.48 0.48 88.12-0.54Q86.76-1.56 86.76-3.56L86.76-3.56Q86.76-6.40 89.56-8.48Q92.36-10.56 97.72-11.36L97.72-11.36L97.72-13.60Q97.72-15.84 96.88-16.96Q96.04-18.08 94.12-18.08L94.12-18.08Q93.08-18.08 92.10-17.78Q91.12-17.48 90.54-17.02Q89.96-16.56 89.96-16.20L89.96-16.20Q89.96-15.96 90.34-15.68Q90.72-15.40 90.96-15.12Q91.20-14.84 91.20-14.20L91.20-14.20Q91.20-13.44 90.78-12.98Q90.36-12.52 89.56-12.52L89.56-12.52Q88.72-12.52 88.24-13.06Q87.76-13.60 87.76-14.56L87.76-14.56Q87.76-15.72 88.48-16.78Q89.20-17.84 90.74-18.50Q92.28-19.16 94.64-19.16L94.64-19.16Q97.52-19.16 98.94-17.94Q100.36-16.72 100.36-13.80L100.36-13.80L100.36-3.92Q100.36-2.36 100.70-1.78Q101.04-1.20 101.80-1.20L101.80-1.20Q102.20-1.20 102.92-1.44L102.92-1.44ZM89.80-4.24Q89.80-2.76 90.64-2.02Q91.48-1.28 93-1.28L93-1.28Q94.28-1.28 95.42-1.80Q96.56-2.32 97.72-3.20L97.72-3.20L97.72-10.24Q89.80-8.68 89.80-4.24L89.80-4.24Z M115.52-19.16Q116.80-19.16 117.56-18.40Q118.32-17.64 118.32-16.16L118.32-16.16Q118.32-13.72 116.24-13.72L116.24-13.72Q115.28-13.72 114.80-14.22Q114.32-14.72 114.32-15.44L114.32-15.44Q114.32-15.88 114.48-16.20Q114.64-16.52 114.96-16.88Q115.28-17.24 115.28-17.44L115.28-17.44Q115.28-17.80 114.72-17.80L114.72-17.80Q113.84-17.80 112.88-16.92Q111.92-16.04 111.30-14.58Q110.68-13.12 110.68-11.52L110.68-11.52L110.68-3.32Q110.68-2.24 110.84-1.80Q111-1.36 111.56-1.22Q112.12-1.08 113.52-1.08L113.52-1.08L113.52 0L105.20 0L105.20-1.08Q106.64-1.08 107.18-1.22Q107.72-1.36 107.88-1.78Q108.04-2.20 108.04-3.32L108.04-3.32L108.04-15.44Q108.04-16.44 107.80-16.78Q107.56-17.12 106.84-17.12L106.84-17.12L105.36-17.12L105.36-18.20L109.48-18.92L110.56-18.92L110.56-15L110.60-15Q111.32-16.24 111.86-17.02Q112.40-17.80 113.34-18.48Q114.28-19.16 115.52-19.16L115.52-19.16Z M0.36 42L0.36 40.92Q1.80 40.92 2.42 40.74Q3.04 40.56 3.22 40.12Q3.40 39.68 3.40 38.68L3.40 38.68L3.40 18.96Q3.40 17.92 3.20 17.48Q3 17.04 2.38 16.86Q1.76 16.68 0.36 16.68L0.36 16.68L0.36 15.60L9.36 15.60Q13.76 15.60 16.30 17.40Q18.84 19.20 18.84 23.08L18.84 23.08Q18.84 27.04 16.22 29.08Q13.60 31.12 9.36 31.12L9.36 31.12L6.36 31.12L6.36 38.68Q6.36 39.72 6.56 40.16Q6.76 40.60 7.44 40.76Q8.12 40.92 9.72 40.92L9.72 40.92L9.72 42L0.36 42ZM6.36 29.76L8.92 29.76Q12.32 29.76 13.94 28.24Q15.56 26.72 15.56 23.36L15.56 23.36Q15.56 20 13.92 18.46Q12.28 16.92 8.84 16.92L8.84 16.92Q7.28 16.92 6.82 17.24Q6.36 17.56 6.36 18.32L6.36 18.32L6.36 29.76Z M38.64 40.56L38.88 41.48Q38.16 41.88 37.50 42.14Q36.84 42.40 35.68 42.40L35.68 42.40Q34.72 42.40 34.16 41.94Q33.60 41.48 33.48 39.92L33.48 39.92Q31.88 41.24 30.50 41.86Q29.12 42.48 27.44 42.48L27.44 42.48Q25.20 42.48 23.84 41.46Q22.48 40.44 22.48 38.44L22.48 38.44Q22.48 35.60 25.28 33.52Q28.08 31.44 33.44 30.64L33.44 30.64L33.44 28.40Q33.44 26.16 32.60 25.04Q31.76 23.92 29.84 23.92L29.84 23.92Q28.80 23.92 27.82 24.22Q26.84 24.52 26.26 24.98Q25.68 25.44 25.68 25.80L25.68 25.80Q25.68 26.04 26.06 26.32Q26.44 26.60 26.68 26.88Q26.92 27.16 26.92 27.80L26.92 27.80Q26.92 28.56 26.50 29.02Q26.08 29.48 25.28 29.48L25.28 29.48Q24.44 29.48 23.96 28.94Q23.48 28.40 23.48 27.44L23.48 27.44Q23.48 26.28 24.20 25.22Q24.92 24.16 26.46 23.50Q28 22.84 30.36 22.84L30.36 22.84Q33.24 22.84 34.66 24.06Q36.08 25.28 36.08 28.20L36.08 28.20L36.08 38.08Q36.08 39.64 36.42 40.22Q36.76 40.80 37.52 40.80L37.52 40.80Q37.92 40.80 38.64 40.56L38.64 40.56ZM25.52 37.76Q25.52 39.24 26.36 39.98Q27.20 40.72 28.72 40.72L28.72 40.72Q30 40.72 31.14 40.20Q32.28 39.68 33.44 38.80L33.44 38.80L33.44 31.76Q25.52 33.32 25.52 37.76L25.52 37.76Z M46.68 42.44Q45.36 42.44 44.30 41.66Q43.24 40.88 43.24 38.56L43.24 38.56L43.24 24.40L39.96 24.40L39.96 23.32Q42.16 23.32 43.44 21.66Q44.72 20 45.04 17.36L45.04 17.36L45.88 17.36L45.88 23.32L50.40 23.32L50.40 24.40L45.88 24.40L45.88 38.44Q45.88 39.96 46.30 40.56Q46.72 41.16 47.44 41.16L47.44 41.16Q48.12 41.16 48.92 40.72Q49.72 40.28 50.16 39.84L50.16 39.84L50.60 40.76Q49.60 41.60 48.80 42.02Q48.00 42.44 46.68 42.44L46.68 42.44Z M69.40 32.80L56.28 32.80Q56.28 41.40 62.28 41.40L62.28 41.40Q64.88 41.40 66.30 40.02Q67.72 38.64 68.24 36.76L68.24 36.76L69.24 37.08Q68.56 39.52 66.80 41Q65.04 42.48 61.64 42.48L61.64 42.48Q57.36 42.48 55.30 39.96Q53.24 37.44 53.24 32.92L53.24 32.92Q53.24 28.24 55.38 25.54Q57.52 22.84 61.72 22.84L61.72 22.84Q66.32 22.84 67.86 25.68Q69.40 28.52 69.40 32.52L69.40 32.52L69.40 32.80ZM61.68 23.92Q56.64 23.92 56.32 31.72L56.32 31.72L66.36 31.72Q66.36 27.76 65.26 25.84Q64.16 23.92 61.68 23.92L61.68 23.92Z M72.56 42L72.56 40.92Q74 40.92 74.54 40.78Q75.08 40.64 75.24 40.22Q75.40 39.80 75.40 38.68L75.40 38.68L75.40 17.76Q75.40 16.76 75.16 16.42Q74.92 16.08 74.20 16.08L74.20 16.08L72.72 16.08L72.72 15L76.96 14.28L78.04 14.28L78.04 38.68Q78.04 39.76 78.20 40.20Q78.36 40.64 78.92 40.78Q79.48 40.92 80.88 40.92L80.88 40.92L80.88 42L72.56 42Z"/></g>
</svg>
</g><g opacity="1" transform="rotate(0 153.7691 168.6001)">
<svg width="3" height="120" x="153.7691" y="168.6001" version="1.1" preserveAspectRatio="none" viewBox="0 0 3 120">
  <rect x="0" y="0" width="3" height="120" class="companyName shapeStroke-str" style="stroke-width:0;" rx="0px" ry="0px" />
</svg>
</g></svg></svg>